<?xml version="1.0" encoding="utf-8"?>
<!-- Generator: Adobe Illustrator 24.3.0, SVG Export Plug-In . SVG Version: 6.00 Build 0)  -->
<svg version="1.1" id="Layer_1" xmlns="http://www.w3.org/2000/svg" xmlns:xlink="http://www.w3.org/1999/xlink" x="0px" y="0px"
	 viewBox="0 0 512 512" style="enable-background:new 0 0 512 512;" xml:space="preserve">
<style type="text/css">
	.st0{fill:#FFFFFF;}
	.st1{fill:#0066B1;}
</style>
<g>
	<desc>Created with Sketch.</desc>
	<g>
		<rect y="0" width="512" height="512"/>
		<g id="BMW-logo-white-default-53px">
			<g id="BMW-logo">
				<g id="BMW-logo-white">
					<g id="BMW-Logo-103x115-White-NEW">
						<path id="Shape" class="st0" d="M256,45.7C139.9,45.7,45.7,139.9,45.7,256S139.9,466.3,256,466.3S466.3,372.1,466.3,256
							S372.1,45.7,256,45.7L256,45.7z M452.6,256c0,108.6-88,196.6-196.6,196.6S59.4,364.6,59.4,256S147.4,59.4,256,59.4
							S452.6,147.4,452.6,256z"/>
						<g id="Group" transform="translate(7.304985, 3.108504)">
							<path id="W_60_" class="st0" d="M350.6,163.7c2.9,3.1,7,8,9.3,11l42.6-27c-2.1-2.8-5.5-7-8-10l-27,17.8l-1.8,1.6l1.4-2
								l11.9-23.8l-8.4-8.4l-23.8,11.9l-2,1.4l1.6-1.8l17.8-27c-3.1-2.7-6.2-5.1-10-8.1l-27,42.5c3.4,2.6,7.9,6.5,10.8,9.1
								l25.4-13.2l1.6-1.2l-1.2,1.6L350.6,163.7z"/>
							<path id="M_60_" class="st0" d="M254,109.8l11.6-26.1l0.7-2.3l-0.2,2.4l1.2,34.8c4.1,0.4,8.3,1,12.4,1.6l-1.9-51.6
								c-5.8-0.6-11.6-1.1-17.4-1.3l-11.5,28.4l-0.4,2.1l-0.4-2.1l-11.4-28.4c-5.8,0.2-11.6,0.7-17.4,1.3l-1.9,51.6
								c4.2-0.7,8.4-1.2,12.4-1.6l1.2-34.8l-0.2-2.4l0.7,2.3l11.6,26.1H254z"/>
							<path id="B_x5F_22d_60_" class="st0" d="M159.9,150.9c6.7-7.1,10.5-15.3,3.8-23.1c-3.7-4.2-9.8-5.2-14.9-3.1l-0.5,0.2
								l0.2-0.4c0.8-2,1.2-8.4-4.2-12.9c-2.7-2.2-6-3-9.4-2.6c-6.3,0.6-11.2,5-24.4,19.7c-4,4.5-9.8,11.5-13.3,16l36.3,34.5
								C145.5,165.8,150.4,160.9,159.9,150.9z M112.5,142.4c7.3-9,15.1-17.1,18.6-20.3c1.1-1,2.3-2,3.8-2.4c2.4-0.7,4.8,1,5.4,3.5
								c0.6,2.5-1,4.8-2.7,6.7c-3.9,4.4-18.1,19.2-18.1,19.2L112.5,142.4z M126.7,155.9c0,0,13.8-14.6,18.3-19.3
								c1.8-1.9,2.9-3,4.2-3.6c1.6-0.8,3.3-0.9,4.9,0.1c1.5,1,2.2,2.8,1.9,4.5c-0.5,2.1-2.2,4.1-3.6,5.6c-1.9,2-18.3,19.6-18.3,19.6
								L126.7,155.9z"/>
						</g>
						<path id="Path" class="st0" d="M380.7,256H256V131.3C324.9,131.3,380.7,187.1,380.7,256z"/>
						<path id="Path_1_" class="st0" d="M256,256v124.7c-68.9,0-124.7-55.8-124.7-124.7H256L256,256z"/>
						<path id="Path_2_" class="st1" d="M256,131.3V256H131.3C131.3,187.1,187.1,131.3,256,131.3z"/>
						<path id="Path_3_" class="st1" d="M380.7,256c0,68.9-55.8,124.7-124.7,124.7V256H380.7z"/>
					</g>
				</g>
			</g>
		</g>
	</g>
</g>
</svg>
